<svg viewBox="0 0 88 25" id="svg5" xmlns="http://www.w3.org/2000/svg" xmlns:svg="http://www.w3.org/2000/svg"><defs id="defs9"/><path d="M5 0H83a5 5 0 015 5v15a5 5 0 01-5 5H5a5 5 0 01-5-5V5a5 5 0 015-5z" style="fill:#000" id="path2"/><g aria-label="Mixer" id="component-text" style="font-weight:900;font-size:25px;font-family:Montserrat;letter-spacing:1.1px;fill:#fffffc"><path d="M6.425 21V3.5h4.85l7 11.425h-2.55L22.525 3.5h4.85L27.425 21H22.05L22 11.6h.85L18.2 19.425H15.6L10.75 11.6H11.8V21z" id="path11"/><path d="M31.200012 21V7.325h5.65V21zm2.825-14.775q-1.55.0-2.475-.825-.925-.825-.925-2.05.0-1.225.925-2.05.925-.825 2.475-.825 1.55.0 2.475.775.925.775.925 2 0 1.3-.925 2.15-.925.825-2.475.825z" id="path13"/><path d="m38.975016 21 6.45-8.45-.15 3.25-6.15-8.475h6.375l3.025 4.525-2.35.175 3.325-4.7h5.925l-6.175 8.2V12.4l6.3 8.6h-6.475l-3.125-4.825 2.375.325-3.225 4.5z" id="path15"/><path d="m64.850045 21.25q-2.5.0-4.375-.925-1.85-.925-2.875-2.525-1.025-1.625-1.025-3.65.0-2.075 1-3.675 1.025-1.6 2.775-2.5 1.775-.9 3.975-.9 2.025.0 3.725.8 1.725.8 2.75 2.375 1.05 1.575 1.05 3.9.0.3-.025.675-.025.35-.05.65h-10.525V12.75h7.525l-2.125.725q0-.8-.3-1.35-.275-.575-.775-.875-.5-.325-1.2-.325t-1.225.325q-.5.3-.775.875-.275.55-.275 1.35v.85q0 .875.35 1.5t1 .95q.65.3 1.575.3.95.0 1.55-.25.625-.25 1.3-.75l2.95 2.975q-1 1.075-2.475 1.65-1.45.55-3.5.55z" id="path17"/><path d="M74.725044 21V7.325h5.375v4.125l-.875-1.175q.625-1.6 2-2.4 1.375-.8 3.3-.8v5q-.375-.05-.675-.075-.275-.025-.575-.025-1.275.0-2.1.675-.8.65-.8 2.275V21z" id="path19"/></g></svg>